<mxfile host="65bd71144e">
    <diagram id="aJj5OnpfIMygN9XPc8s5" name="Page-1">
        <mxGraphModel dx="911" dy="830" grid="1" gridSize="10" guides="1" tooltips="1" connect="1" arrows="1" fold="1" page="1" pageScale="1" pageWidth="827" pageHeight="1169" math="0" shadow="0">
            <root>
                <mxCell id="0"/>
                <mxCell id="1" parent="0"/>
                <mxCell id="7" style="edgeStyle=none;html=1;entryX=0.5;entryY=0;entryDx=0;entryDy=0;" edge="1" parent="1" source="2" target="15">
                    <mxGeometry relative="1" as="geometry">
                        <mxPoint x="469.8800000000001" y="140.01999999999998" as="targetPoint"/>
                    </mxGeometry>
                </mxCell>
                <mxCell id="2" value="Начало метода&amp;nbsp;&lt;span style=&quot;color: rgb(121 , 94 , 38) ; background-color: rgb(255 , 255 , 255) ; font-family: &amp;#34;consolas&amp;#34; , &amp;#34;courier new&amp;#34; , monospace ; font-size: 14px&quot;&gt;Main&lt;/span&gt;" style="ellipse;whiteSpace=wrap;html=1;" vertex="1" parent="1">
                    <mxGeometry x="410" y="30" width="120" height="50" as="geometry"/>
                </mxCell>
                <mxCell id="3" value="&lt;span&gt;Конец метода&amp;nbsp;&lt;/span&gt;&lt;span style=&quot;color: rgb(121 , 94 , 38) ; background-color: rgb(255 , 255 , 255) ; font-family: &amp;#34;consolas&amp;#34; , &amp;#34;courier new&amp;#34; , monospace ; font-size: 14px&quot;&gt;Main&lt;/span&gt;" style="ellipse;whiteSpace=wrap;html=1;" vertex="1" parent="1">
                    <mxGeometry x="410" y="840" width="120" height="80" as="geometry"/>
                </mxCell>
                <mxCell id="8" style="edgeStyle=none;html=1;entryX=0.5;entryY=0;entryDx=0;entryDy=0;exitX=0.5;exitY=1;exitDx=0;exitDy=0;" edge="1" parent="1" source="15" target="5">
                    <mxGeometry relative="1" as="geometry">
                        <mxPoint x="460" y="190" as="sourcePoint"/>
                    </mxGeometry>
                </mxCell>
                <mxCell id="10" style="edgeStyle=none;html=1;entryX=0.5;entryY=0;entryDx=0;entryDy=0;" edge="1" parent="1" source="5" target="17">
                    <mxGeometry relative="1" as="geometry">
                        <mxPoint x="462.5" y="330" as="targetPoint"/>
                    </mxGeometry>
                </mxCell>
                <mxCell id="5" value="Присваиваем массив рабочей переменной:&lt;br&gt;&lt;div style=&quot;background-color: rgb(255 , 255 , 255) ; font-family: &amp;#34;consolas&amp;#34; , &amp;#34;courier new&amp;#34; , monospace ; font-size: 14px ; line-height: 19px&quot;&gt;&lt;span style=&quot;color: #0000ff&quot;&gt;string&lt;/span&gt;[] &lt;span style=&quot;color: #001080&quot;&gt;strArray&lt;/span&gt; = &lt;span style=&quot;color: #001080&quot;&gt;strArray1;&lt;/span&gt;&lt;/div&gt;" style="rounded=0;whiteSpace=wrap;html=1;" vertex="1" parent="1">
                    <mxGeometry x="210" y="210" width="520" height="60" as="geometry"/>
                </mxCell>
                <mxCell id="12" style="edgeStyle=none;html=1;entryX=0.513;entryY=0.013;entryDx=0;entryDy=0;entryPerimeter=0;exitX=0.5;exitY=1;exitDx=0;exitDy=0;" edge="1" parent="1" source="17" target="11">
                    <mxGeometry relative="1" as="geometry">
                        <mxPoint x="460.32094594594605" y="390" as="sourcePoint"/>
                    </mxGeometry>
                </mxCell>
                <mxCell id="14" style="edgeStyle=none;html=1;" edge="1" parent="1" source="11" target="13">
                    <mxGeometry relative="1" as="geometry"/>
                </mxCell>
                <mxCell id="11" value="Считаем количество элементов для итогового массива и создаем итоговый массив&lt;br&gt;:&lt;br&gt;&lt;div style=&quot;background-color: rgb(255 , 255 , 255) ; font-family: &amp;#34;consolas&amp;#34; , &amp;#34;courier new&amp;#34; , monospace ; font-size: 14px ; line-height: 19px&quot;&gt;&lt;span style=&quot;color: #0000ff&quot;&gt;string&lt;/span&gt;[] &lt;span style=&quot;color: #001080&quot;&gt;resArray&lt;/span&gt; = &lt;span style=&quot;color: #0000ff&quot;&gt;new&lt;/span&gt; &lt;span style=&quot;color: #0000ff&quot;&gt;string&lt;/span&gt;[&lt;span style=&quot;color: #795e26&quot;&gt;GetCountOfStrings&lt;/span&gt;(&lt;span style=&quot;color: #001080&quot;&gt;strArray&lt;/span&gt;, &lt;span style=&quot;color: #001080&quot;&gt;ControlLength&lt;/span&gt;)];&lt;/div&gt;" style="rounded=0;whiteSpace=wrap;html=1;" vertex="1" parent="1">
                    <mxGeometry x="203" y="420" width="520" height="80" as="geometry"/>
                </mxCell>
                <mxCell id="20" value="" style="edgeStyle=none;html=1;" edge="1" parent="1" source="13" target="18">
                    <mxGeometry relative="1" as="geometry"/>
                </mxCell>
                <mxCell id="13" value="Копируем строки соответствующей длины в итоговый массив:&lt;br&gt;&lt;div style=&quot;background-color: rgb(255 , 255 , 255) ; font-family: &amp;#34;consolas&amp;#34; , &amp;#34;courier new&amp;#34; , monospace ; font-size: 14px ; line-height: 19px&quot;&gt;&lt;span style=&quot;color: #795e26&quot;&gt;CopyStrings&lt;/span&gt;(&lt;span style=&quot;color: #001080&quot;&gt;strArray&lt;/span&gt;, &lt;span style=&quot;color: #001080&quot;&gt;resArray&lt;/span&gt;, &lt;span style=&quot;color: #001080&quot;&gt;ControlLength&lt;/span&gt;);&lt;/div&gt;" style="rounded=0;whiteSpace=wrap;html=1;" vertex="1" parent="1">
                    <mxGeometry x="203" y="540" width="520" height="60" as="geometry"/>
                </mxCell>
                <mxCell id="15" value="&lt;span&gt;Задаем массив в тестовую переменнут&lt;/span&gt;&lt;br&gt;&lt;div style=&quot;background-color: rgb(255 , 255 , 255) ; font-family: &amp;#34;consolas&amp;#34; , &amp;#34;courier new&amp;#34; , monospace ; font-size: 14px ; line-height: 19px&quot;&gt;&amp;nbsp;&lt;span style=&quot;color: rgb(0 , 0 , 255)&quot;&gt;string&lt;/span&gt;[]&amp;nbsp;&lt;span style=&quot;color: rgb(0 , 16 , 128)&quot;&gt;strArray1&lt;/span&gt;&amp;nbsp;= {&amp;nbsp;&lt;span style=&quot;color: rgb(163 , 21 , 21)&quot;&gt;&quot;12345&quot;&lt;/span&gt;,&amp;nbsp;&lt;span style=&quot;color: rgb(163 , 21 , 21)&quot;&gt;&quot;1456&quot;&lt;/span&gt;,&amp;nbsp;&lt;span style=&quot;color: rgb(163 , 21 , 21)&quot;&gt;&quot;-2&quot;&lt;/span&gt;,&amp;nbsp;&lt;span style=&quot;color: rgb(163 , 21 , 21)&quot;&gt;&quot;hv&quot;&lt;/span&gt;,&amp;nbsp;&lt;span style=&quot;color: rgb(163 , 21 , 21)&quot;&gt;&quot; &quot;&lt;/span&gt;&amp;nbsp;};&lt;/div&gt;" style="shape=parallelogram;perimeter=parallelogramPerimeter;whiteSpace=wrap;html=1;fixedSize=1;" vertex="1" parent="1">
                    <mxGeometry x="175" y="120" width="590" height="60" as="geometry"/>
                </mxCell>
                <mxCell id="17" value="&lt;span&gt;Задаем контрольную длину выбираемых строк:&lt;/span&gt;&lt;br&gt;&lt;div style=&quot;background-color: rgb(255 , 255 , 255) ; font-family: &amp;#34;consolas&amp;#34; , &amp;#34;courier new&amp;#34; , monospace ; font-size: 14px ; line-height: 19px&quot;&gt;&lt;span style=&quot;color: rgb(0 , 0 , 255)&quot;&gt;int&lt;/span&gt;&amp;nbsp;&lt;span style=&quot;color: rgb(0 , 16 , 128)&quot;&gt;ControlLength&lt;/span&gt;&amp;nbsp;=&amp;nbsp;&lt;span style=&quot;color: rgb(9 , 134 , 88)&quot;&gt;3;&lt;/span&gt;&lt;/div&gt;" style="shape=parallelogram;perimeter=parallelogramPerimeter;whiteSpace=wrap;html=1;fixedSize=1;" vertex="1" parent="1">
                    <mxGeometry x="195" y="320" width="550" height="60" as="geometry"/>
                </mxCell>
                <mxCell id="21" style="edgeStyle=none;html=1;entryX=0.483;entryY=-0.05;entryDx=0;entryDy=0;entryPerimeter=0;" edge="1" parent="1" source="18" target="19">
                    <mxGeometry relative="1" as="geometry"/>
                </mxCell>
                <mxCell id="18" value="Выводим на экран исходный массив строк:&lt;br&gt;&lt;div style=&quot;background-color: rgb(255 , 255 , 255) ; font-family: &amp;#34;consolas&amp;#34; , &amp;#34;courier new&amp;#34; , monospace ; font-size: 14px ; line-height: 19px&quot;&gt;&lt;span style=&quot;color: #795e26&quot;&gt;PrintStringAray&lt;/span&gt;(&lt;span style=&quot;color: #001080&quot;&gt;strArray&lt;/span&gt;, &lt;span style=&quot;color: #a31515&quot;&gt;&quot;Исходный массив:&quot;&lt;/span&gt;);&lt;/div&gt;" style="shape=parallelogram;perimeter=parallelogramPerimeter;whiteSpace=wrap;html=1;fixedSize=1;" vertex="1" parent="1">
                    <mxGeometry x="220" y="630" width="480" height="60" as="geometry"/>
                </mxCell>
                <mxCell id="22" style="edgeStyle=none;html=1;entryX=0.5;entryY=0;entryDx=0;entryDy=0;" edge="1" parent="1" source="19" target="3">
                    <mxGeometry relative="1" as="geometry"/>
                </mxCell>
                <mxCell id="19" value="Выводим на экран результирующий массив строк:&lt;br&gt;&lt;div style=&quot;background-color: rgb(255 , 255 , 255) ; font-family: &amp;#34;consolas&amp;#34; , &amp;#34;courier new&amp;#34; , monospace ; font-size: 14px ; line-height: 19px&quot;&gt;&lt;span style=&quot;color: #795e26&quot;&gt;PrintStringAray&lt;/span&gt;(&lt;span style=&quot;color: #001080&quot;&gt;resArray&lt;/span&gt;, &lt;span style=&quot;color: #a31515&quot;&gt;&quot;Результирующий массив:&quot;&lt;/span&gt;);&lt;/div&gt;" style="shape=parallelogram;perimeter=parallelogramPerimeter;whiteSpace=wrap;html=1;fixedSize=1;" vertex="1" parent="1">
                    <mxGeometry x="240" y="740" width="460" height="60" as="geometry"/>
                </mxCell>
                <mxCell id="26" style="edgeStyle=none;html=1;" edge="1" parent="1" source="23" target="24">
                    <mxGeometry relative="1" as="geometry"/>
                </mxCell>
                <mxCell id="23" value="Начало метода CopyStrings" style="ellipse;whiteSpace=wrap;html=1;" vertex="1" parent="1">
                    <mxGeometry x="1070" y="20" width="170" height="50" as="geometry"/>
                </mxCell>
                <mxCell id="27" style="edgeStyle=none;html=1;entryX=0.482;entryY=0.008;entryDx=0;entryDy=0;entryPerimeter=0;" edge="1" parent="1" source="24" target="25">
                    <mxGeometry relative="1" as="geometry"/>
                </mxCell>
                <mxCell id="24" value="Инициализация индекса результирующего массива:&lt;br&gt;&lt;div style=&quot;background-color: rgb(255 , 255 , 255) ; font-family: &amp;#34;consolas&amp;#34; , &amp;#34;courier new&amp;#34; , monospace ; font-size: 14px ; line-height: 19px&quot;&gt;&lt;font color=&quot;#0000ff&quot;&gt;int&amp;nbsp;&lt;/font&gt;&lt;span style=&quot;color: #001080&quot;&gt;resArrayIndex&lt;/span&gt; = &lt;span style=&quot;color: #098658&quot;&gt;0&lt;/span&gt;&lt;/div&gt;" style="rounded=0;whiteSpace=wrap;html=1;" vertex="1" parent="1">
                    <mxGeometry x="1057.5" y="110" width="195" height="60" as="geometry"/>
                </mxCell>
                <mxCell id="29" style="edgeStyle=none;html=1;entryX=0.5;entryY=0;entryDx=0;entryDy=0;exitX=1;exitY=0.5;exitDx=0;exitDy=0;" edge="1" parent="1" source="25" target="28">
                    <mxGeometry relative="1" as="geometry">
                        <Array as="points">
                            <mxPoint x="1480" y="280"/>
                        </Array>
                    </mxGeometry>
                </mxCell>
                <mxCell id="30" value="Да" style="edgeLabel;html=1;align=center;verticalAlign=middle;resizable=0;points=[];" vertex="1" connectable="0" parent="29">
                    <mxGeometry x="-0.1077" relative="1" as="geometry">
                        <mxPoint as="offset"/>
                    </mxGeometry>
                </mxCell>
                <mxCell id="46" value="Нет" style="edgeStyle=none;html=1;exitX=0;exitY=0.5;exitDx=0;exitDy=0;" edge="1" parent="1" source="25" target="45">
                    <mxGeometry x="-0.9434" y="-20" relative="1" as="geometry">
                        <Array as="points">
                            <mxPoint x="940" y="280"/>
                            <mxPoint x="940" y="990"/>
                            <mxPoint x="1160" y="990"/>
                        </Array>
                        <mxPoint as="offset"/>
                    </mxGeometry>
                </mxCell>
                <mxCell id="25" value="&lt;div style=&quot;background-color: rgb(255 , 255 , 255) ; font-family: &amp;#34;consolas&amp;#34; , &amp;#34;courier new&amp;#34; , monospace ; font-size: 14px ; line-height: 19px&quot;&gt;&lt;span style=&quot;color: #001080&quot;&gt;controlStringLength&lt;/span&gt; &amp;gt; &lt;span style=&quot;color: #098658&quot;&gt;0 И&lt;/span&gt;&amp;nbsp;&lt;/div&gt;&lt;div style=&quot;background-color: rgb(255 , 255 , 255) ; font-family: &amp;#34;consolas&amp;#34; , &amp;#34;courier new&amp;#34; , monospace ; font-size: 14px ; line-height: 19px&quot;&gt;&lt;span style=&quot;color: #001080&quot;&gt;initArr&lt;/span&gt;.&lt;span style=&quot;color: #001080&quot;&gt;Length&lt;/span&gt; &amp;gt; &lt;span style=&quot;color: #098658&quot;&gt;0 И&lt;/span&gt;&amp;nbsp;&lt;/div&gt;&lt;div style=&quot;background-color: rgb(255 , 255 , 255) ; font-family: &amp;#34;consolas&amp;#34; , &amp;#34;courier new&amp;#34; , monospace ; font-size: 14px ; line-height: 19px&quot;&gt;&lt;span style=&quot;color: #001080&quot;&gt;resArr&lt;/span&gt;.&lt;span style=&quot;color: #001080&quot;&gt;Length&lt;/span&gt; &amp;gt; &lt;span style=&quot;color: #098658&quot;&gt;0&lt;/span&gt;&lt;/div&gt;&lt;div style=&quot;background-color: rgb(255 , 255 , 255) ; font-family: &amp;#34;consolas&amp;#34; , &amp;#34;courier new&amp;#34; , monospace ; font-size: 14px ; line-height: 19px&quot;&gt;&lt;br&gt;&lt;/div&gt;" style="rhombus;whiteSpace=wrap;html=1;" vertex="1" parent="1">
                    <mxGeometry x="990" y="220" width="340" height="120" as="geometry"/>
                </mxCell>
                <mxCell id="32" style="edgeStyle=none;html=1;entryX=0.5;entryY=0;entryDx=0;entryDy=0;" edge="1" parent="1" source="28" target="31">
                    <mxGeometry relative="1" as="geometry"/>
                </mxCell>
                <mxCell id="47" style="edgeStyle=none;html=1;entryX=0.5;entryY=0;entryDx=0;entryDy=0;exitX=1;exitY=0.5;exitDx=0;exitDy=0;" edge="1" parent="1" source="28" target="45">
                    <mxGeometry relative="1" as="geometry">
                        <Array as="points">
                            <mxPoint x="2120" y="430"/>
                            <mxPoint x="2130" y="990"/>
                            <mxPoint x="1161" y="990"/>
                        </Array>
                    </mxGeometry>
                </mxCell>
                <mxCell id="28" value="&lt;div style=&quot;background-color: rgb(255 , 255 , 255) ; font-family: &amp;#34;consolas&amp;#34; , &amp;#34;courier new&amp;#34; , monospace ; font-size: 14px ; line-height: 19px&quot;&gt;&lt;span style=&quot;color: #0000ff&quot;&gt;int&lt;/span&gt; &lt;span style=&quot;color: #001080&quot;&gt;i&lt;/span&gt; = &lt;span style=&quot;color: #098658&quot;&gt;0&lt;/span&gt;;&amp;nbsp;&lt;/div&gt;&lt;div style=&quot;background-color: rgb(255 , 255 , 255) ; font-family: &amp;#34;consolas&amp;#34; , &amp;#34;courier new&amp;#34; , monospace ; font-size: 14px ; line-height: 19px&quot;&gt;&lt;span style=&quot;color: #001080&quot;&gt;i&lt;/span&gt; &amp;lt; &lt;span style=&quot;color: #001080&quot;&gt;initArr&lt;/span&gt;.&lt;span style=&quot;color: #001080&quot;&gt;Length&lt;/span&gt;;&lt;/div&gt;&lt;div style=&quot;background-color: rgb(255 , 255 , 255) ; font-family: &amp;#34;consolas&amp;#34; , &amp;#34;courier new&amp;#34; , monospace ; font-size: 14px ; line-height: 19px&quot;&gt;&lt;span style=&quot;color: #001080&quot;&gt;i&lt;/span&gt;++&lt;/div&gt;" style="shape=hexagon;perimeter=hexagonPerimeter2;whiteSpace=wrap;html=1;fixedSize=1;" vertex="1" parent="1">
                    <mxGeometry x="1390" y="390" width="180" height="80" as="geometry"/>
                </mxCell>
                <mxCell id="36" style="edgeStyle=none;html=1;entryX=0.5;entryY=0;entryDx=0;entryDy=0;exitX=1;exitY=0.5;exitDx=0;exitDy=0;" edge="1" parent="1" source="31" target="35">
                    <mxGeometry relative="1" as="geometry">
                        <Array as="points">
                            <mxPoint x="1875" y="580"/>
                        </Array>
                    </mxGeometry>
                </mxCell>
                <mxCell id="37" value="Да" style="edgeLabel;html=1;align=center;verticalAlign=middle;resizable=0;points=[];" vertex="1" connectable="0" parent="36">
                    <mxGeometry x="0.219" y="-4" relative="1" as="geometry">
                        <mxPoint as="offset"/>
                    </mxGeometry>
                </mxCell>
                <mxCell id="40" value="Нет" style="edgeStyle=none;html=1;exitX=0;exitY=0.5;exitDx=0;exitDy=0;" edge="1" parent="1" source="31">
                    <mxGeometry x="-0.9394" y="-10" relative="1" as="geometry">
                        <mxPoint x="1390" y="430" as="targetPoint"/>
                        <Array as="points">
                            <mxPoint x="1250" y="580"/>
                            <mxPoint x="1250" y="430"/>
                        </Array>
                        <mxPoint as="offset"/>
                    </mxGeometry>
                </mxCell>
                <mxCell id="31" value="&lt;div style=&quot;background-color: rgb(255 , 255 , 255) ; font-family: &amp;#34;consolas&amp;#34; , &amp;#34;courier new&amp;#34; , monospace ; font-size: 14px ; line-height: 19px&quot;&gt;&lt;span style=&quot;color: #001080&quot;&gt;initArr&lt;/span&gt;[&lt;span style=&quot;color: #001080&quot;&gt;i&lt;/span&gt;].&lt;span style=&quot;color: #001080&quot;&gt;Length&lt;/span&gt; &amp;lt;= &lt;span style=&quot;color: #001080&quot;&gt;controlStringLength&lt;/span&gt;&lt;/div&gt;" style="rhombus;whiteSpace=wrap;html=1;" vertex="1" parent="1">
                    <mxGeometry x="1290" y="540" width="380" height="80" as="geometry"/>
                </mxCell>
                <mxCell id="39" style="edgeStyle=none;html=1;exitX=0.5;exitY=1;exitDx=0;exitDy=0;entryX=0;entryY=0.5;entryDx=0;entryDy=0;" edge="1" parent="1" source="34" target="28">
                    <mxGeometry relative="1" as="geometry">
                        <mxPoint x="1130" y="480" as="targetPoint"/>
                        <Array as="points">
                            <mxPoint x="1878" y="910"/>
                            <mxPoint x="1250" y="910"/>
                            <mxPoint x="1250" y="430"/>
                        </Array>
                    </mxGeometry>
                </mxCell>
                <mxCell id="34" value="&lt;div style=&quot;background-color: rgb(255 , 255 , 255) ; font-family: &amp;#34;consolas&amp;#34; , &amp;#34;courier new&amp;#34; , monospace ; font-size: 14px ; line-height: 19px&quot;&gt;&lt;span style=&quot;color: #001080&quot;&gt;resArrayIndex&lt;/span&gt;++;&lt;span style=&quot;color: rgb(0 , 16 , 128)&quot;&gt;resArrayIndex&lt;/span&gt;++;&lt;/div&gt;" style="rounded=0;whiteSpace=wrap;html=1;" vertex="1" parent="1">
                    <mxGeometry x="1735" y="750" width="285" height="60" as="geometry"/>
                </mxCell>
                <mxCell id="38" style="edgeStyle=none;html=1;entryX=0.5;entryY=0;entryDx=0;entryDy=0;" edge="1" parent="1" source="35" target="34">
                    <mxGeometry relative="1" as="geometry"/>
                </mxCell>
                <mxCell id="35" value="&#10;&#10;&lt;span style=&quot;font-family: consolas, &amp;quot;courier new&amp;quot;, monospace; font-size: 14px; font-style: normal; font-weight: 400; letter-spacing: normal; text-align: center; text-indent: 0px; text-transform: none; word-spacing: 0px; color: rgb(0, 16, 128);&quot;&gt;resArr&lt;/span&gt;&lt;span style=&quot;color: rgb(0, 0, 0); font-family: consolas, &amp;quot;courier new&amp;quot;, monospace; font-size: 14px; font-style: normal; font-weight: 400; letter-spacing: normal; text-align: center; text-indent: 0px; text-transform: none; word-spacing: 0px; background-color: rgb(255, 255, 255); display: inline; float: none;&quot;&gt;[&lt;/span&gt;&lt;span style=&quot;font-family: consolas, &amp;quot;courier new&amp;quot;, monospace; font-size: 14px; font-style: normal; font-weight: 400; letter-spacing: normal; text-align: center; text-indent: 0px; text-transform: none; word-spacing: 0px; color: rgb(0, 16, 128);&quot;&gt;resArrayIndex&lt;/span&gt;&lt;span style=&quot;color: rgb(0, 0, 0); font-family: consolas, &amp;quot;courier new&amp;quot;, monospace; font-size: 14px; font-style: normal; font-weight: 400; letter-spacing: normal; text-align: center; text-indent: 0px; text-transform: none; word-spacing: 0px; background-color: rgb(255, 255, 255); display: inline; float: none;&quot;&gt;] =&lt;span&gt;&amp;nbsp;&lt;/span&gt;&lt;/span&gt;&lt;span style=&quot;font-family: consolas, &amp;quot;courier new&amp;quot;, monospace; font-size: 14px; font-style: normal; font-weight: 400; letter-spacing: normal; text-align: center; text-indent: 0px; text-transform: none; word-spacing: 0px; color: rgb(0, 16, 128);&quot;&gt;initArr&lt;/span&gt;&lt;span style=&quot;color: rgb(0, 0, 0); font-family: consolas, &amp;quot;courier new&amp;quot;, monospace; font-size: 14px; font-style: normal; font-weight: 400; letter-spacing: normal; text-align: center; text-indent: 0px; text-transform: none; word-spacing: 0px; background-color: rgb(255, 255, 255); display: inline; float: none;&quot;&gt;[&lt;/span&gt;&lt;span style=&quot;font-family: consolas, &amp;quot;courier new&amp;quot;, monospace; font-size: 14px; font-style: normal; font-weight: 400; letter-spacing: normal; text-align: center; text-indent: 0px; text-transform: none; word-spacing: 0px; color: rgb(0, 16, 128);&quot;&gt;i&lt;/span&gt;&lt;span style=&quot;color: rgb(0, 0, 0); font-family: consolas, &amp;quot;courier new&amp;quot;, monospace; font-size: 14px; font-style: normal; font-weight: 400; letter-spacing: normal; text-align: center; text-indent: 0px; text-transform: none; word-spacing: 0px; background-color: rgb(255, 255, 255); display: inline; float: none;&quot;&gt;];&lt;/span&gt;&#10;&#10;" style="rounded=0;whiteSpace=wrap;html=1;" vertex="1" parent="1">
                    <mxGeometry x="1730" y="640" width="290" height="60" as="geometry"/>
                </mxCell>
                <mxCell id="45" value="Конец метода CopyStrings" style="ellipse;whiteSpace=wrap;html=1;" vertex="1" parent="1">
                    <mxGeometry x="1076" y="1070" width="170" height="50" as="geometry"/>
                </mxCell>
            </root>
        </mxGraphModel>
    </diagram>
</mxfile>